<svg width="0" height="0" class="hidden">
	<symbol xmlns="http://www.w3.org/2000/svg" viewBox="0 0 48 13" id="logo">
		<path d="M.992.727h4.383c1.125 0 2.04.349 2.742 1.046.703.693 1.055 1.602 1.055 2.727 0 1.12-.362 2.029-1.086 2.727-.719.697-1.651 1.046-2.797 1.046H3.008V12H.992V.727zm2.016 1.648v4.273h1.828c.724 0 1.286-.187 1.687-.562.401-.375.602-.904.602-1.586 0-.677-.2-1.2-.602-1.57-.395-.37-.955-.555-1.68-.555H3.009zM10.5 12V3.719h1.945V12H10.5zm1.734-9.672a1.055 1.055 0 01-.765.305 1.055 1.055 0 01-1.078-1.055c0-.297.104-.547.312-.75.209-.208.464-.312.766-.312s.557.104.765.312c.214.203.32.453.32.75 0 .292-.106.542-.32.75zm3.868 4.844l3.117-3.453h2.242L18.148 7.28 21.602 12h-2.25l-2.618-3.54-.656.665V12h-1.945V.727h1.945v6.445h.024zm9.265 3.492c.557 0 1.026-.164 1.406-.492.386-.333.579-.748.579-1.242v-.633l-1.915.117c-.468.031-.833.149-1.093.352a.949.949 0 00-.383.789c0 .338.128.61.383.812.26.198.601.297 1.023.297zm-.586 1.469c-.807 0-1.471-.232-1.992-.695-.516-.464-.773-1.066-.773-1.805 0-.735.27-1.315.812-1.742.547-.427 1.326-.672 2.336-.735l2.188-.125v-.593c0-.433-.139-.769-.415-1.008-.27-.24-.648-.36-1.132-.36-.453 0-.823.102-1.11.305-.286.203-.46.48-.523.828h-1.805c.042-.786.378-1.424 1.008-1.914.635-.495 1.471-.742 2.508-.742 1.026 0 1.846.25 2.46.75.62.5.93 1.167.93 2V12h-1.875v-1.32h-.039a2.609 2.609 0 01-1.062 1.062 3.1 3.1 0 01-1.516.39zm9.157 0c-1.047 0-1.883-.386-2.508-1.156-.62-.771-.93-1.813-.93-3.125 0-1.308.31-2.347.93-3.118.625-.77 1.46-1.156 2.508-1.156.583 0 1.098.138 1.546.414.453.276.792.649 1.016 1.117h.047V.727h1.945V12h-1.906v-1.414h-.031c-.23.474-.576.851-1.04 1.133-.458.276-.984.414-1.578.414zm.585-6.953c-.625 0-1.12.242-1.484.726-.364.48-.547 1.13-.547 1.953 0 .829.18 1.482.54 1.961.364.48.861.72 1.491.72.615 0 1.107-.243 1.477-.727.37-.485.555-1.136.555-1.954 0-.812-.185-1.46-.555-1.945a1.759 1.759 0 00-1.477-.734zm12.946-1.461V12h-1.875v-1.438h-.04c-.458 1.058-1.301 1.586-2.53 1.586-.902 0-1.618-.273-2.149-.82-.526-.552-.79-1.305-.79-2.258V3.72h1.946v4.96c0 .594.14 1.048.422 1.36.287.313.703.469 1.25.469.557 0 1-.182 1.328-.547.328-.365.492-.849.492-1.453v-4.79h1.946z"></path>
	</symbol>
	<symbol xmlns="http://www.w3.org/2000/svg" viewBox="0 0 19 20" id="like">
		<path d="M18.138 10.51c.394-.52.612-1.158.612-1.822 0-1.052-.588-2.048-1.535-2.604a1.586 1.586 0 00-.804-.218h-5.62l.14-2.88a2.509 2.509 0 00-.691-1.861A2.498 2.498 0 008.414.342c-1.219 0-2.297.82-2.62 1.995L3.78 9.626H.75a.75.75 0 00-.75.75v8.531c0 .415.335.75.75.75h14.093c.216 0 .427-.042.621-.127a3.014 3.014 0 001.709-3.642 3.016 3.016 0 00.485-2.688c.394-.52.611-1.158.611-1.821a3.2 3.2 0 00-.13-.87zm-16.45 7.46v-6.657h1.898v6.657H1.688zm14.915-8.274l-.513.445.326.596a1.338 1.338 0 01-.298 1.648l-.513.445.325.595a1.338 1.338 0 01-.298 1.648l-.512.445.325.595a1.332 1.332 0 01-.626 1.854H5.086v-6.729L7.418 2.79a1.034 1.034 0 01.989-.757.833.833 0 01.837.872l-.225 4.65h7.368c.418.255.675.687.675 1.134 0 .387-.168.753-.459 1.008z"></path>
	</symbol>
	<symbol xmlns="http://www.w3.org/2000/svg" viewBox="0 0 14 12" id="photo">
		<path d="M13.5.5H.5A.5.5 0 000 1v10a.5.5 0 00.5.5h13a.5.5 0 00.5-.5V1a.5.5 0 00-.5-.5zm-.625 9.875H1.125v-.623l2.164-2.568 2.345 2.782L9.283 5.64l3.592 4.26v.475zm0-2.028L9.378 4.2a.124.124 0 00-.19 0L5.633 8.412l-2.25-2.667a.124.124 0 00-.19 0L1.125 8.198V1.625h11.75v6.722zM3.75 5.125a1.375 1.375 0 100-2.75 1.375 1.375 0 000 2.75zm0-1.813a.437.437 0 11.001.874.437.437 0 01-.001-.873z"></path>
	</symbol>
	<symbol fill="none" xmlns="http://www.w3.org/2000/svg" viewBox="0 0 14 14" id="search">
		<path d="M13.213 12.352L9.155 8.294c.63-.814.97-1.81.97-2.857a4.66 4.66 0 00-1.373-3.314A4.653 4.653 0 005.437.75a4.66 4.66 0 00-3.314 1.373A4.65 4.65 0 00.75 5.437c0 1.252.49 2.43 1.373 3.315a4.65 4.65 0 003.314 1.373 4.65 4.65 0 002.855-.969l4.058 4.056a.129.129 0 00.181 0l.681-.68a.129.129 0 000-.18zm-5.3-4.44a3.481 3.481 0 01-2.476 1.026 3.481 3.481 0 01-2.475-1.026 3.481 3.481 0 01-1.025-2.474 3.48 3.48 0 011.025-2.475 3.481 3.481 0 012.475-1.026c.935 0 1.815.363 2.475 1.025a3.481 3.481 0 011.026 2.475c0 .935-.365 1.815-1.026 2.475z" fill="#FA8C16"></path>
	</symbol>
	<symbol xmlns="http://www.w3.org/2000/svg" viewBox="0 0 22 22" id="off">
		<path d="M15.537 1.927a.188.188 0 00-.272.17V3.6c0 .129.068.248.176.319a8.255 8.255 0 011.458 1.167 8.319 8.319 0 012.442 5.906 8.33 8.33 0 01-2.442 5.906 8.274 8.274 0 01-2.653 1.79 8.265 8.265 0 01-3.246.657 8.27 8.27 0 01-3.247-.656A8.274 8.274 0 015.1 16.9a8.32 8.32 0 01-2.442-5.906A8.329 8.329 0 015.1 5.086 8.473 8.473 0 016.558 3.92a.374.374 0 00.176-.32V2.095c0-.14-.148-.23-.272-.169a10.14 10.14 0 00-5.587 8.941C.809 16.463 5.386 21.113 10.98 21.125c5.601.012 10.144-4.53 10.144-10.134 0-3.966-2.274-7.4-5.588-9.064zM10.25 12.125h1.5a.188.188 0 00.187-.188V1.063a.188.188 0 00-.187-.188h-1.5a.188.188 0 00-.188.188v10.874c0 .104.085.188.188.188z"></path>
	</symbol>
	<symbol xmlns="http://www.w3.org/2000/svg" viewBox="0 0 20 20" id="save">
		<path d="M19.187 4.874l-3.811-3.81a1.494 1.494 0 00-.626-.376V.625H1.625a.75.75 0 00-.75.75v17.25c0 .415.335.75.75.75h17.25a.75.75 0 00.75-.75V5.934c0-.399-.157-.779-.438-1.06zM7.25 2.313h6V4.75h-6V2.312zm10.687 15.374H2.562V2.313H5.75V5.5c0 .415.335.75.75.75H14a.75.75 0 00.75-.75V2.823l3.187 3.188v11.677zM10.25 8.36a3.376 3.376 0 10.002 6.752 3.376 3.376 0 00-.002-6.752zm0 5.25a1.874 1.874 0 11-.001-3.749 1.874 1.874 0 010 3.75z" ></path>
	</symbol>
	<symbol xmlns="http://www.w3.org/2000/svg" viewBox="0 0 22 22" id="comment">
		<path d="M9.75 11A1.125 1.125 0 1012 11a1.125 1.125 0 00-2.25 0zm4.688 0a1.125 1.125 0 102.25 0 1.125 1.125 0 00-2.25 0zm-9.375 0a1.125 1.125 0 102.25 0 1.125 1.125 0 00-2.25 0zM20.56 6.931a10.505 10.505 0 00-5.616-5.615A10.45 10.45 0 0010.875.5h-.047A10.476 10.476 0 00.375 11.05 10.533 10.533 0 001.5 15.733v3.563a1.078 1.078 0 001.078 1.078h3.565a10.533 10.533 0 004.685 1.125h.05c1.403 0 2.765-.272 4.047-.804a10.417 10.417 0 003.347-2.231 10.473 10.473 0 003.103-7.418 10.459 10.459 0 00-.816-4.116zm-3.542 10.266a8.673 8.673 0 01-6.143 2.522h-.04a8.75 8.75 0 01-4.057-1.02l-.197-.105h-3.3v-3.3l-.105-.197a8.75 8.75 0 01-1.02-4.057 8.665 8.665 0 012.522-6.183 8.653 8.653 0 016.16-2.576h.04c1.171 0 2.308.228 3.38.678a8.662 8.662 0 012.788 1.875 8.683 8.683 0 012.552 6.206 8.686 8.686 0 01-2.58 6.157z" ></path>
	</symbol>
	<symbol xmlns="http://www.w3.org/2000/svg" viewBox="0 0 18 20" id="share">
		<path d="M14.687 13.563a2.8 2.8 0 00-1.767.625l-4.856-3.513a3.766 3.766 0 000-1.35l4.856-3.513a2.8 2.8 0 001.767.625A2.815 2.815 0 0017.5 3.626 2.815 2.815 0 0014.687.812a2.815 2.815 0 00-2.702 3.593l-4.612 3.34A3.749 3.749 0 00.625 10a3.749 3.749 0 006.748 2.255l4.612 3.34a2.815 2.815 0 002.702 3.593 2.815 2.815 0 002.813-2.813 2.815 2.815 0 00-2.813-2.813zm0-11.157a1.22 1.22 0 110 2.439 1.22 1.22 0 010-2.439zM4.375 12.062A2.066 2.066 0 012.312 10c0-1.137.926-2.063 2.063-2.063S6.437 8.864 6.437 10a2.066 2.066 0 01-2.062 2.063zm10.312 5.532a1.22 1.22 0 11.002-2.439 1.22 1.22 0 01-.002 2.439z" ></path>
	</symbol>
	<symbol xmlns="http://www.w3.org/2000/svg" viewBox="0 0 14 12" id="video">
		<path d="M13.25 2.723l-2 1.152V1.5a1 1 0 00-1-1H1a1 1 0 00-1 1v9a1 1 0 001 1h9.25a1 1 0 001-1V8.125l2 1.152a.5.5 0 00.75-.432V3.156a.5.5 0 00-.75-.433zm-3.125 7.652h-9v-8.75h9v8.75zm2.75-2.61l-1.625-.934v-1.66l1.625-.937v3.532zM2.25 3.626H4a.125.125 0 00.125-.125v-.75A.125.125 0 004 2.625H2.25a.125.125 0 00-.125.125v.75c0 .069.056.125.125.125z"></path>
	</symbol>
	<symbol fill="none" xmlns="http://www.w3.org/2000/svg" viewBox="0 0 34 34" id="user">
		<rect width="34" height="34" rx="4" fill="#BFBFBF"></rect>
		<path d="M27.829 24.863a11.688 11.688 0 00-2.52-3.735 11.737 11.737 0 00-3.733-2.519c-.013-.006-.026-.009-.038-.015A7.749 7.749 0 0017 4.563a7.749 7.749 0 00-7.75 7.75 7.744 7.744 0 003.213 6.284c-.012.006-.025.01-.037.015a11.636 11.636 0 00-3.735 2.52 11.738 11.738 0 00-2.519 3.734 11.615 11.615 0 00-.921 4.315.25.25 0 00.25.256h1.875a.25.25 0 00.25-.243 9.317 9.317 0 012.743-6.385A9.313 9.313 0 0117 20.062c2.507 0 4.86.976 6.632 2.747a9.317 9.317 0 012.743 6.385.247.247 0 00.25.244H28.5a.252.252 0 00.233-.16.248.248 0 00.017-.097 11.643 11.643 0 00-.921-4.319zM17 17.688a5.34 5.34 0 01-3.8-1.575 5.34 5.34 0 01-1.574-3.8 5.34 5.34 0 011.575-3.8A5.34 5.34 0 0117 6.937a5.34 5.34 0 013.8 1.574 5.34 5.34 0 011.575 3.8 5.34 5.34 0 01-1.576 3.8 5.34 5.34 0 01-3.8 1.576z" fill="#fff"></path>
	</symbol>
	<symbol xmlns="http://www.w3.org/2000/svg" viewBox="0 0 12 14" id="fire">
		<path d="M11.033 6.331a5.43 5.43 0 00-1.295-1.8l-.455-.417a.127.127 0 00-.203.052l-.203.583c-.127.365-.36.739-.69 1.106a.098.098 0 01-.064.031.086.086 0 01-.067-.023.092.092 0 01-.031-.075c.058-.94-.223-2.002-.84-3.157-.508-.959-1.216-1.707-2.1-2.23L4.438.023a.125.125 0 00-.187.114l.034.75c.023.513-.036.966-.177 1.342-.171.461-.418.89-.734 1.274a4.62 4.62 0 01-.742.72 5.51 5.51 0 00-1.567 1.899 5.434 5.434 0 00-.133 4.535 5.49 5.49 0 002.928 2.9 5.5 5.5 0 002.14.429c.742 0 1.46-.144 2.14-.427a5.445 5.445 0 001.747-1.167A5.408 5.408 0 0011.5 8.533c0-.762-.156-1.503-.467-2.202zM9.14 11.633A4.43 4.43 0 016 12.921a4.43 4.43 0 01-3.14-1.288 4.34 4.34 0 01-1.297-3.1c0-.68.153-1.331.454-1.937a4.42 4.42 0 011.263-1.53c.339-.26.646-.557.915-.888.39-.476.697-1.007.91-1.578a3.75 3.75 0 00.189-.726c.376.347.692.765.956 1.256.522.978.763 1.848.716 2.589a1.156 1.156 0 002.012.847 5.09 5.09 0 00.538-.713c.218.28.401.585.546.913a4.33 4.33 0 01.376 1.767c0 1.17-.461 2.272-1.297 3.1z"></path>
	</symbol>
	<symbol xmlns="http://www.w3.org/2000/svg" viewBox="0 0 448 512" id="instagram">
		<path d="M224.1 141c-63.6 0-114.9 51.3-114.9 114.9s51.3 114.9 114.9 114.9S339 319.5 339 255.9 287.7 141 224.1 141zm0 189.6c-41.1 0-74.7-33.5-74.7-74.7s33.5-74.7 74.7-74.7 74.7 33.5 74.7 74.7-33.6 74.7-74.7 74.7zm146.4-194.3c0 14.9-12 26.8-26.8 26.8-14.9 0-26.8-12-26.8-26.8s12-26.8 26.8-26.8 26.8 12 26.8 26.8zm76.1 27.2c-1.7-35.9-9.9-67.7-36.2-93.9-26.2-26.2-58-34.4-93.9-36.2-37-2.1-147.9-2.1-184.9 0-35.8 1.7-67.6 9.9-93.9 36.1s-34.4 58-36.2 93.9c-2.1 37-2.1 147.9 0 184.9 1.7 35.9 9.9 67.7 36.2 93.9s58 34.4 93.9 36.2c37 2.1 147.9 2.1 184.9 0 35.9-1.7 67.7-9.9 93.9-36.2 26.2-26.2 34.4-58 36.2-93.9 2.1-37 2.1-147.8 0-184.8zM398.8 388c-7.8 19.6-22.9 34.7-42.6 42.6-29.5 11.7-99.5 9-132.1 9s-102.7 2.6-132.1-9c-19.6-7.8-34.7-22.9-42.6-42.6-11.7-29.5-9-99.5-9-132.1s-2.6-102.7 9-132.1c7.8-19.6 22.9-34.7 42.6-42.6 29.5-11.7 99.5-9 132.1-9s102.7-2.6 132.1 9c19.6 7.8 34.7 22.9 42.6 42.6 11.7 29.5 9 99.5 9 132.1s2.7 102.7-9 132.1z"></path>
	</symbol>
	<symbol xmlns="http://www.w3.org/2000/svg" viewBox="0 0 320 512" id="facebook">
		<path d="M279.14 288l14.22-92.66h-88.91v-60.13c0-25.35 12.42-50.06 52.24-50.06h40.42V6.26S260.43 0 225.36 0c-73.22 0-121.08 44.38-121.08 124.72v70.62H22.89V288h81.39v224h100.17V288z"></path>
	</symbol>
	<symbol xmlns="http://www.w3.org/2000/svg" viewBox="0 0 512 512" id="twitter">
    <path d="M459.37 151.716c.325 4.548.325 9.097.325 13.645 0 138.72-105.583 298.558-298.558 298.558-59.452 0-114.68-17.219-161.137-47.106 8.447.974 16.568 1.299 25.34 1.299 49.055 0 94.213-16.568 130.274-44.832-46.132-.975-84.792-31.188-98.112-72.772 6.498.974 12.995 1.624 19.818 1.624 9.421 0 18.843-1.3 27.614-3.573-48.081-9.747-84.143-51.98-84.143-102.985v-1.299c13.969 7.797 30.214 12.67 47.431 13.319-28.264-18.843-46.781-51.005-46.781-87.391 0-19.492 5.197-37.36 14.294-52.954 51.655 63.675 129.3 105.258 216.365 109.807-1.624-7.797-2.599-15.918-2.599-24.04 0-57.828 46.782-104.934 104.934-104.934 30.213 0 57.502 12.67 76.67 33.137 23.715-4.548 46.456-13.32 66.599-25.34-7.798 24.366-24.366 44.833-46.132 57.827 21.117-2.273 41.584-8.122 60.426-16.243-14.292 20.791-32.161 39.308-52.628 54.253z"></path>
  </symbol>
</svg>